<svg width="32" height="32" viewBox="0 0 32 32" fill="none" xmlns="http://www.w3.org/2000/svg">
  <rect width="32" height="32" rx="6" fill="#0f172a"/>
  <path d="M16 6C10 6 5 11 5 16C5 21 10 26 16 26C22 26 27 21 27 16C27 11 22 6 16 6ZM16 23C12.1 23 9 19.9 9 16C9 12.1 12.1 9 16 9C19.9 9 23 12.1 23 16C23 19.9 19.9 23 16 23Z" fill="#fbbf24"/>
  <path d="M16 12C13.8 12 12 13.8 12 16C12 18.2 13.8 20 16 20C18.2 20 20 18.2 20 16C20 13.8 18.2 12 16 12Z" fill="#fbbf24" fill-opacity="0.8">
    <animate attributeName="fill-opacity" values="0.8;0.3;0.8" dur="3s" repeatCount="indefinite" />
  </path>
  <circle cx="16" cy="16" r="2" fill="#fff"/>
</svg>
